<?xml version="1.0" standalone="no"?>
<!DOCTYPE svg PUBLIC "-//W3C//DTD SVG 20010904//EN"
 "http://www.w3.org/TR/2001/REC-SVG-20010904/DTD/svg10.dtd">
<svg version="1.0" xmlns="http://www.w3.org/2000/svg"
 width="280.000000pt" height="280.000000pt" viewBox="0 0 280.000000 280.000000"
 preserveAspectRatio="xMidYMid meet">
<metadata>
Created by potrace 1.11, written by Peter Selinger 2001-2013
</metadata>
<g transform="translate(0.000000,280.000000) scale(0.100000,-0.100000)"
fill="#000000" stroke="none">
<path d="M1740 2414 c-44 -27 -65 -34 -106 -34 -41 0 -57 -5 -78 -25 -15 -14
-41 -32 -57 -41 -17 -8 -57 -36 -88 -60 -47 -36 -68 -46 -112 -51 -32 -3 -66
-14 -84 -28 -16 -12 -44 -29 -62 -39 -55 -28 -102 -105 -84 -135 8 -12 12 -12
24 -2 20 16 99 20 104 4 2 -7 -14 -21 -36 -33 -23 -11 -41 -25 -41 -31 0 -20
81 0 112 26 37 31 83 32 138 4 44 -23 50 -41 22 -61 -30 -21 -33 -34 -17 -72
22 -53 19 -73 -12 -81 -36 -9 -50 -30 -45 -71 3 -27 14 -41 54 -70 52 -38 68
-66 68 -113 0 -43 -21 -55 -86 -48 l-56 6 6 -37 c3 -20 6 -45 6 -54 0 -10 24
-33 55 -54 63 -42 64 -61 2 -35 -61 26 -104 34 -124 22 -16 -9 -15 -11 12 -21
18 -8 25 -14 17 -17 -8 -3 -24 -1 -35 5 -180 83 -404 102 -519 44 -73 -36
-158 -153 -158 -218 0 -15 -16 -36 -46 -61 -25 -21 -63 -53 -84 -71 -39 -33
-62 -43 -40 -17 35 42 -41 0 -142 -78 -46 -35 -55 -47 -39 -47 36 0 23 -26
-41 -85 -39 -35 -55 -54 -41 -50 20 6 22 3 19 -30 -3 -27 -11 -42 -35 -58 -36
-26 -40 -37 -10 -30 19 5 21 3 16 -19 -6 -24 -4 -26 38 -32 38 -6 55 -2 109
24 35 16 76 44 90 60 13 17 32 30 40 30 9 0 16 6 16 13 0 9 3 8 9 -2 5 -7 13
-11 19 -7 6 3 12 1 14 -5 2 -6 16 -13 30 -14 15 -2 32 -6 38 -10 6 -4 50 19
97 51 l86 57 68 -71 c52 -55 69 -68 73 -55 6 14 10 13 31 -7 13 -13 21 -28 18
-33 -5 -8 -8 -7 -11 1 -4 13 -42 17 -42 5 0 -5 14 -21 30 -37 17 -16 30 -34
31 -40 1 -16 88 -86 107 -86 12 0 8 7 -14 24 -36 29 -90 104 -80 113 3 3 6 1
6 -5 0 -7 6 -12 13 -12 6 -1 41 -23 77 -50 66 -51 122 -72 65 -25 -96 78 -105
88 -105 110 0 12 -7 28 -16 36 -11 9 -14 22 -9 46 7 39 -12 80 -66 142 -46 51
-48 68 -14 121 18 28 25 54 25 89 0 59 -16 76 -75 77 -65 1 -79 16 -47 50 29
32 70 54 101 54 35 0 148 -26 173 -40 10 -6 29 -10 42 -10 14 0 27 -4 31 -9 3
-5 20 -13 37 -17 18 -3 39 -10 48 -14 8 -4 35 -16 60 -25 25 -9 53 -21 62 -26
10 -5 26 -9 36 -9 10 0 22 -4 28 -9 9 -9 83 -24 197 -42 66 -10 98 -28 124
-70 26 -41 160 -158 202 -178 l36 -16 -57 -3 c-58 -3 -128 18 -128 37 0 6 -6
11 -13 11 -8 0 -24 12 -38 26 -28 30 -99 79 -115 79 -6 0 -19 6 -28 14 -9 8
-16 9 -16 3 0 -6 5 -14 10 -17 22 -13 8 -23 -25 -18 -33 5 -35 4 -35 -22 0
-23 -2 -26 -15 -15 -24 20 -26 7 -5 -27 34 -57 227 -204 240 -183 3 5 29 -8
58 -30 67 -51 94 -58 122 -32 12 11 43 23 68 27 48 7 107 36 130 63 6 9 12 42
12 74 0 54 -3 60 -45 108 -25 28 -45 53 -45 56 0 4 16 3 36 0 23 -5 41 -3 51
6 11 9 53 13 142 13 113 0 131 -2 171 -23 25 -13 60 -38 78 -55 30 -29 32 -35
32 -104 0 -47 4 -73 11 -73 7 0 9 -13 5 -37 -3 -21 -3 -32 0 -25 12 27 26 11
20 -23 -5 -24 -3 -35 5 -35 6 0 9 -7 5 -15 -3 -8 -1 -15 4 -15 6 0 10 5 10 10
0 6 5 10 11 10 7 0 9 -12 5 -36 -6 -30 -5 -35 11 -33 10 1 26 -1 36 -6 43 -18
87 73 87 182 0 173 -34 273 -114 333 -62 46 -171 96 -120 54 19 -15 19 -16 -1
-8 -111 40 -235 74 -297 80 -79 8 -80 9 -66 41 15 39 10 199 -8 234 -8 15 -14
45 -14 67 0 41 -71 272 -96 309 -7 12 -14 29 -14 37 0 8 -12 28 -26 45 -14 17
-23 34 -20 39 3 5 29 4 59 -1 30 -5 74 -7 100 -3 71 11 127 66 66 66 -10 0
-19 5 -19 10 0 6 8 10 18 10 10 0 27 7 38 15 17 13 13 14 -51 15 l-70 1 45 18
45 19 -85 -5 c-67 -4 -89 -2 -105 11 -19 15 -18 15 25 16 25 0 64 9 87 19 58
27 79 70 31 62 -17 -2 -6 9 22 24 17 9 30 20 30 25 0 14 -34 12 -48 -2 -21
-21 -35 12 -15 34 20 23 16 23 -32 -2 -26 -13 -62 -21 -105 -22 l-65 -1 60 -7
60 -7 -57 -1 c-31 -1 -63 -5 -72 -8 -21 -8 -34 25 -15 37 8 5 40 9 71 7 51 -1
88 11 88 31 0 3 -15 15 -33 26 l-32 19 50 7 50 6 -32 13 c-18 8 -33 18 -33 23
0 4 -15 14 -34 22 -39 17 -96 5 -126 -25 -32 -32 -56 -41 -84 -30 -43 16 -28
49 22 50 9 0 25 12 36 26 19 27 17 32 -19 48 -15 7 17 26 43 26 13 0 20 4 17
10 -3 6 -29 10 -56 10 -36 0 -49 4 -46 13 2 6 13 12 25 11 12 0 19 3 16 8 -10
15 -39 7 -94 -28z m270 -134 c11 -7 -3 -10 -45 -9 -43 0 -54 3 -40 9 27 12 67
12 85 0z m-73 -294 c4 -8 17 -16 28 -19 16 -4 15 -5 -5 -6 -25 -1 -50 15 -50
31 0 13 18 9 27 -6z m-426 -56 c10 -6 26 -24 34 -41 9 -16 24 -38 33 -47 66
-66 78 -106 36 -116 -29 -8 -74 24 -74 53 0 9 -12 27 -25 40 -14 13 -33 36
-42 52 -10 16 -23 29 -30 29 -15 0 -26 17 -18 30 8 13 61 13 86 0z m213 -378
c3 -5 8 -28 12 -50 l7 -42 -42 0 c-30 0 -44 -5 -53 -20 -17 -27 -39 -25 -62 7
-15 20 -17 32 -10 52 8 21 18 27 52 32 23 3 48 11 54 17 14 14 35 16 42 4z
m133 -244 c18 -22 22 -95 7 -115 -7 -10 -14 -26 -14 -36 0 -28 -26 -31 -74 -9
-92 44 -160 63 -202 56 -31 -4 -45 -2 -58 11 -32 33 -14 40 106 43 87 2 119 6
128 17 7 8 18 15 25 15 7 0 18 7 25 15 15 18 44 20 57 3z m-530 -64 c-3 -3
-12 -4 -19 -1 -8 3 -5 6 6 6 11 1 17 -2 13 -5z m965 -229 c24 -8 32 -13 18
-10 -14 2 -58 7 -98 11 -40 3 -75 11 -79 17 -8 13 101 1 159 -18z m113 -25
l20 -9 -20 0 c-11 0 -27 4 -35 9 -13 9 -13 10 0 9 8 0 24 -4 35 -9z m302 -252
c-3 -8 -6 -5 -6 6 -1 11 2 17 5 13 3 -3 4 -12 1 -19z m10 -50 c-3 -7 -5 -2 -5
12 0 14 2 19 5 13 2 -7 2 -19 0 -25z m-809 -18 c38 -1 43 -3 29 -11 -18 -11
-71 -4 -97 13 -12 8 -11 8 3 4 10 -3 40 -6 65 -6z"/>
<path d="M785 1381 c-63 -9 -155 -49 -155 -67 0 -18 24 -18 39 0 6 8 24 17 39
20 15 4 47 12 72 18 25 6 97 11 160 10 73 -1 109 1 100 7 -21 13 -194 21 -255
12z"/>
<path d="M1075 1340 c3 -5 17 -10 31 -10 14 0 22 4 19 10 -3 6 -17 10 -31 10
-14 0 -22 -4 -19 -10z"/>
<path d="M571 1236 c-8 -9 -11 -19 -7 -23 9 -9 29 13 24 27 -2 8 -8 7 -17 -4z"/>
<path d="M545 1177 c-4 -10 -5 -21 -1 -24 10 -10 18 4 13 24 -4 17 -4 17 -12
0z"/>
<path d="M1226 825 c-44 -27 -50 -55 -25 -110 47 -105 110 -149 205 -143 42 3
49 6 52 26 2 12 8 22 15 22 6 0 -4 16 -23 35 -23 24 -37 32 -45 25 -17 -14
-48 22 -39 45 5 13 3 16 -7 13 -15 -5 -39 14 -39 31 0 11 -43 80 -50 80 -3 0
-23 -10 -44 -24z"/>
<path d="M1380 710 c0 -5 5 -10 10 -10 6 0 10 5 10 10 0 6 -4 10 -10 10 -5 0
-10 -4 -10 -10z"/>
<path d="M1738 543 c7 -3 16 -2 19 1 4 3 -2 6 -13 5 -11 0 -14 -3 -6 -6z"/>
</g>
</svg>
